<mxfile host="app.diagrams.net" agent="Mozilla/5.0 (Windows NT 10.0; Win64; x64) AppleWebKit/537.36 (KHTML, like Gecko) Chrome/129.0.0.0 Safari/537.36" version="24.7.17">
  <diagram name="Sayfa -1" id="pEmAGCNdmHjnGGRYUrAR">
    <mxGraphModel dx="2736" dy="1013" grid="1" gridSize="10" guides="1" tooltips="1" connect="1" arrows="1" fold="1" page="1" pageScale="1" pageWidth="827" pageHeight="1169" math="0" shadow="0">
      <root>
        <mxCell id="0" />
        <mxCell id="1" parent="0" />
        <mxCell id="g9a9p5KyALhsiFFAaAvJ-4" style="edgeStyle=none;rounded=0;orthogonalLoop=1;jettySize=auto;html=1;entryX=0.5;entryY=0;entryDx=0;entryDy=0;" parent="1" edge="1">
          <mxGeometry relative="1" as="geometry">
            <mxPoint x="345" y="150" as="sourcePoint" />
            <mxPoint x="345" y="210" as="targetPoint" />
          </mxGeometry>
        </mxCell>
        <mxCell id="g9a9p5KyALhsiFFAaAvJ-6" style="edgeStyle=none;rounded=0;orthogonalLoop=1;jettySize=auto;html=1;entryX=0.5;entryY=0;entryDx=0;entryDy=0;" parent="1" edge="1">
          <mxGeometry relative="1" as="geometry">
            <mxPoint x="345" y="290" as="sourcePoint" />
            <mxPoint x="345" y="340.0000000000001" as="targetPoint" />
          </mxGeometry>
        </mxCell>
        <mxCell id="g9a9p5KyALhsiFFAaAvJ-7" value="int num&lt;div&gt;bool ispoweroftwo = true&lt;/div&gt;" style="shape=parallelogram;perimeter=parallelogramPerimeter;whiteSpace=wrap;html=1;fixedSize=1;" parent="1" vertex="1">
          <mxGeometry x="240" y="220" width="230" height="60" as="geometry" />
        </mxCell>
        <mxCell id="g9a9p5KyALhsiFFAaAvJ-9" value="start" style="ellipse;whiteSpace=wrap;html=1;" parent="1" vertex="1">
          <mxGeometry x="285" y="70" width="120" height="80" as="geometry" />
        </mxCell>
        <mxCell id="g9a9p5KyALhsiFFAaAvJ-11" style="edgeStyle=none;rounded=0;orthogonalLoop=1;jettySize=auto;html=1;" parent="1" source="g9a9p5KyALhsiFFAaAvJ-10" edge="1">
          <mxGeometry relative="1" as="geometry">
            <mxPoint x="240.0000000000001" y="385.0000000000001" as="targetPoint" />
          </mxGeometry>
        </mxCell>
        <mxCell id="g9a9p5KyALhsiFFAaAvJ-16" value="False" style="edgeLabel;html=1;align=center;verticalAlign=middle;resizable=0;points=[];" parent="g9a9p5KyALhsiFFAaAvJ-11" vertex="1" connectable="0">
          <mxGeometry x="-0.1794" y="2" relative="1" as="geometry">
            <mxPoint as="offset" />
          </mxGeometry>
        </mxCell>
        <mxCell id="g9a9p5KyALhsiFFAaAvJ-12" style="edgeStyle=none;rounded=0;orthogonalLoop=1;jettySize=auto;html=1;" parent="1" source="g9a9p5KyALhsiFFAaAvJ-10" edge="1">
          <mxGeometry relative="1" as="geometry">
            <mxPoint x="450" y="385" as="targetPoint" />
          </mxGeometry>
        </mxCell>
        <mxCell id="g9a9p5KyALhsiFFAaAvJ-14" value="True" style="edgeLabel;html=1;align=center;verticalAlign=middle;resizable=0;points=[];" parent="g9a9p5KyALhsiFFAaAvJ-12" vertex="1" connectable="0">
          <mxGeometry x="-0.0514" relative="1" as="geometry">
            <mxPoint as="offset" />
          </mxGeometry>
        </mxCell>
        <mxCell id="g9a9p5KyALhsiFFAaAvJ-10" value="num&amp;lt;=0" style="rhombus;whiteSpace=wrap;html=1;" parent="1" vertex="1">
          <mxGeometry x="302.5" y="340" width="85" height="90" as="geometry" />
        </mxCell>
        <mxCell id="g9a9p5KyALhsiFFAaAvJ-17" value="qüvveti deyil" style="shape=document;whiteSpace=wrap;html=1;boundedLbl=1;" parent="1" vertex="1">
          <mxGeometry x="450" y="345" width="120" height="80" as="geometry" />
        </mxCell>
        <mxCell id="g9a9p5KyALhsiFFAaAvJ-19" style="edgeStyle=none;rounded=0;orthogonalLoop=1;jettySize=auto;html=1;" parent="1" source="g9a9p5KyALhsiFFAaAvJ-18" edge="1">
          <mxGeometry relative="1" as="geometry">
            <mxPoint x="200.0000000000001" y="499.9999999999999" as="targetPoint" />
          </mxGeometry>
        </mxCell>
        <mxCell id="g9a9p5KyALhsiFFAaAvJ-20" value="True" style="edgeLabel;html=1;align=center;verticalAlign=middle;resizable=0;points=[];" parent="g9a9p5KyALhsiFFAaAvJ-19" vertex="1" connectable="0">
          <mxGeometry x="0.0095" y="2" relative="1" as="geometry">
            <mxPoint as="offset" />
          </mxGeometry>
        </mxCell>
        <mxCell id="g9a9p5KyALhsiFFAaAvJ-18" value="num&amp;gt;1" style="rhombus;whiteSpace=wrap;html=1;" parent="1" vertex="1">
          <mxGeometry x="160" y="345" width="80" height="80" as="geometry" />
        </mxCell>
        <mxCell id="g9a9p5KyALhsiFFAaAvJ-22" style="edgeStyle=none;rounded=0;orthogonalLoop=1;jettySize=auto;html=1;" parent="1" source="g9a9p5KyALhsiFFAaAvJ-21" edge="1">
          <mxGeometry relative="1" as="geometry">
            <mxPoint x="200.0000000000001" y="630" as="targetPoint" />
          </mxGeometry>
        </mxCell>
        <mxCell id="g9a9p5KyALhsiFFAaAvJ-23" value="True" style="edgeLabel;html=1;align=center;verticalAlign=middle;resizable=0;points=[];" parent="g9a9p5KyALhsiFFAaAvJ-22" vertex="1" connectable="0">
          <mxGeometry x="-0.1771" relative="1" as="geometry">
            <mxPoint as="offset" />
          </mxGeometry>
        </mxCell>
        <mxCell id="g9a9p5KyALhsiFFAaAvJ-21" value="num%2 != 0" style="rhombus;whiteSpace=wrap;html=1;" parent="1" vertex="1">
          <mxGeometry x="160" y="500" width="80" height="80" as="geometry" />
        </mxCell>
        <mxCell id="g9a9p5KyALhsiFFAaAvJ-25" style="edgeStyle=none;rounded=0;orthogonalLoop=1;jettySize=auto;html=1;" parent="1" source="g9a9p5KyALhsiFFAaAvJ-24" edge="1">
          <mxGeometry relative="1" as="geometry">
            <mxPoint x="200.0000000000001" y="780" as="targetPoint" />
          </mxGeometry>
        </mxCell>
        <mxCell id="g9a9p5KyALhsiFFAaAvJ-24" value="isPowerOfTwo = false;" style="shape=document;whiteSpace=wrap;html=1;boundedLbl=1;" parent="1" vertex="1">
          <mxGeometry x="140" y="630" width="120" height="80" as="geometry" />
        </mxCell>
        <mxCell id="g9a9p5KyALhsiFFAaAvJ-28" style="edgeStyle=none;rounded=0;orthogonalLoop=1;jettySize=auto;html=1;exitX=0.5;exitY=1;exitDx=0;exitDy=0;" parent="1" source="g9a9p5KyALhsiFFAaAvJ-27" edge="1">
          <mxGeometry relative="1" as="geometry">
            <mxPoint x="200.0000000000001" y="920" as="targetPoint" />
          </mxGeometry>
        </mxCell>
        <mxCell id="g9a9p5KyALhsiFFAaAvJ-47" style="edgeStyle=none;rounded=0;orthogonalLoop=1;jettySize=auto;html=1;exitX=0;exitY=0.5;exitDx=0;exitDy=0;" parent="1" source="g9a9p5KyALhsiFFAaAvJ-27" edge="1">
          <mxGeometry relative="1" as="geometry">
            <mxPoint x="90" y="810" as="targetPoint" />
          </mxGeometry>
        </mxCell>
        <mxCell id="g9a9p5KyALhsiFFAaAvJ-27" value="n/2" style="rounded=0;whiteSpace=wrap;html=1;" parent="1" vertex="1">
          <mxGeometry x="140" y="780" width="120" height="60" as="geometry" />
        </mxCell>
        <mxCell id="g9a9p5KyALhsiFFAaAvJ-30" style="edgeStyle=none;rounded=0;orthogonalLoop=1;jettySize=auto;html=1;" parent="1" source="g9a9p5KyALhsiFFAaAvJ-29" edge="1">
          <mxGeometry relative="1" as="geometry">
            <mxPoint x="300" y="960" as="targetPoint" />
          </mxGeometry>
        </mxCell>
        <mxCell id="g9a9p5KyALhsiFFAaAvJ-31" value="true" style="edgeLabel;html=1;align=center;verticalAlign=middle;resizable=0;points=[];" parent="g9a9p5KyALhsiFFAaAvJ-30" vertex="1" connectable="0">
          <mxGeometry x="0.1333" relative="1" as="geometry">
            <mxPoint as="offset" />
          </mxGeometry>
        </mxCell>
        <mxCell id="g9a9p5KyALhsiFFAaAvJ-33" style="edgeStyle=none;rounded=0;orthogonalLoop=1;jettySize=auto;html=1;exitX=0;exitY=0.5;exitDx=0;exitDy=0;" parent="1" source="g9a9p5KyALhsiFFAaAvJ-29" edge="1">
          <mxGeometry relative="1" as="geometry">
            <mxPoint x="150.0000000000001" y="959.8571428571429" as="targetPoint" />
          </mxGeometry>
        </mxCell>
        <mxCell id="g9a9p5KyALhsiFFAaAvJ-34" style="edgeStyle=none;rounded=0;orthogonalLoop=1;jettySize=auto;html=1;" parent="1" source="g9a9p5KyALhsiFFAaAvJ-29" edge="1">
          <mxGeometry relative="1" as="geometry">
            <mxPoint x="100" y="960" as="targetPoint" />
          </mxGeometry>
        </mxCell>
        <mxCell id="g9a9p5KyALhsiFFAaAvJ-35" value="false" style="edgeLabel;html=1;align=center;verticalAlign=middle;resizable=0;points=[];" parent="g9a9p5KyALhsiFFAaAvJ-34" vertex="1" connectable="0">
          <mxGeometry x="0.0571" relative="1" as="geometry">
            <mxPoint as="offset" />
          </mxGeometry>
        </mxCell>
        <mxCell id="g9a9p5KyALhsiFFAaAvJ-29" value="isprimeof" style="rhombus;whiteSpace=wrap;html=1;" parent="1" vertex="1">
          <mxGeometry x="160" y="920" width="80" height="80" as="geometry" />
        </mxCell>
        <mxCell id="g9a9p5KyALhsiFFAaAvJ-32" value="qüvvetidir" style="shape=document;whiteSpace=wrap;html=1;boundedLbl=1;" parent="1" vertex="1">
          <mxGeometry x="302.5" y="920" width="120" height="80" as="geometry" />
        </mxCell>
        <mxCell id="g9a9p5KyALhsiFFAaAvJ-36" value="quvveti deyil" style="shape=document;whiteSpace=wrap;html=1;boundedLbl=1;" parent="1" vertex="1">
          <mxGeometry x="-20" y="930" width="120" height="80" as="geometry" />
        </mxCell>
        <mxCell id="g9a9p5KyALhsiFFAaAvJ-49" value="" style="endArrow=classic;html=1;rounded=0;" parent="1" edge="1">
          <mxGeometry width="50" height="50" relative="1" as="geometry">
            <mxPoint x="90" y="800" as="sourcePoint" />
            <mxPoint x="90" y="540" as="targetPoint" />
          </mxGeometry>
        </mxCell>
        <mxCell id="g9a9p5KyALhsiFFAaAvJ-50" value="" style="endArrow=classic;html=1;rounded=0;entryX=0;entryY=0.5;entryDx=0;entryDy=0;" parent="1" target="g9a9p5KyALhsiFFAaAvJ-18" edge="1">
          <mxGeometry width="50" height="50" relative="1" as="geometry">
            <mxPoint x="90" y="550" as="sourcePoint" />
            <mxPoint x="140" y="500" as="targetPoint" />
            <Array as="points">
              <mxPoint x="140" y="400" />
            </Array>
          </mxGeometry>
        </mxCell>
        <mxCell id="g9a9p5KyALhsiFFAaAvJ-52" style="edgeStyle=none;rounded=0;orthogonalLoop=1;jettySize=auto;html=1;" parent="1" source="g9a9p5KyALhsiFFAaAvJ-51" edge="1">
          <mxGeometry relative="1" as="geometry">
            <mxPoint x="-500" y="230" as="targetPoint" />
          </mxGeometry>
        </mxCell>
        <mxCell id="g9a9p5KyALhsiFFAaAvJ-51" value="start" style="ellipse;whiteSpace=wrap;html=1;" parent="1" vertex="1">
          <mxGeometry x="-560" y="90" width="120" height="80" as="geometry" />
        </mxCell>
        <mxCell id="g9a9p5KyALhsiFFAaAvJ-54" style="edgeStyle=none;rounded=0;orthogonalLoop=1;jettySize=auto;html=1;" parent="1" source="g9a9p5KyALhsiFFAaAvJ-53" edge="1">
          <mxGeometry relative="1" as="geometry">
            <mxPoint x="-500" y="340" as="targetPoint" />
          </mxGeometry>
        </mxCell>
        <mxCell id="g9a9p5KyALhsiFFAaAvJ-53" value="int num" style="shape=parallelogram;perimeter=parallelogramPerimeter;whiteSpace=wrap;html=1;fixedSize=1;" parent="1" vertex="1">
          <mxGeometry x="-560" y="230" width="120" height="60" as="geometry" />
        </mxCell>
        <mxCell id="g9a9p5KyALhsiFFAaAvJ-56" style="edgeStyle=none;rounded=0;orthogonalLoop=1;jettySize=auto;html=1;exitX=1;exitY=0.5;exitDx=0;exitDy=0;" parent="1" source="g9a9p5KyALhsiFFAaAvJ-55" edge="1">
          <mxGeometry relative="1" as="geometry">
            <mxPoint x="-390" y="380" as="targetPoint" />
          </mxGeometry>
        </mxCell>
        <mxCell id="g9a9p5KyALhsiFFAaAvJ-57" value="true" style="edgeLabel;html=1;align=center;verticalAlign=middle;resizable=0;points=[];" parent="g9a9p5KyALhsiFFAaAvJ-56" vertex="1" connectable="0">
          <mxGeometry x="-0.1484" y="2" relative="1" as="geometry">
            <mxPoint as="offset" />
          </mxGeometry>
        </mxCell>
        <mxCell id="g9a9p5KyALhsiFFAaAvJ-59" style="edgeStyle=none;rounded=0;orthogonalLoop=1;jettySize=auto;html=1;" parent="1" source="g9a9p5KyALhsiFFAaAvJ-55" edge="1">
          <mxGeometry relative="1" as="geometry">
            <mxPoint x="-610" y="380" as="targetPoint" />
          </mxGeometry>
        </mxCell>
        <mxCell id="g9a9p5KyALhsiFFAaAvJ-60" value="false" style="edgeLabel;html=1;align=center;verticalAlign=middle;resizable=0;points=[];" parent="g9a9p5KyALhsiFFAaAvJ-59" vertex="1" connectable="0">
          <mxGeometry x="0.1207" y="-3" relative="1" as="geometry">
            <mxPoint as="offset" />
          </mxGeometry>
        </mxCell>
        <mxCell id="g9a9p5KyALhsiFFAaAvJ-55" value="num&amp;lt;=1" style="rhombus;whiteSpace=wrap;html=1;" parent="1" vertex="1">
          <mxGeometry x="-540" y="340" width="80" height="80" as="geometry" />
        </mxCell>
        <mxCell id="g9a9p5KyALhsiFFAaAvJ-71" style="rounded=0;orthogonalLoop=1;jettySize=auto;html=1;" parent="1" source="g9a9p5KyALhsiFFAaAvJ-58" edge="1">
          <mxGeometry relative="1" as="geometry">
            <mxPoint x="-330" y="800" as="targetPoint" />
          </mxGeometry>
        </mxCell>
        <mxCell id="g9a9p5KyALhsiFFAaAvJ-58" value="ne sade ne murekkeb" style="shape=document;whiteSpace=wrap;html=1;boundedLbl=1;" parent="1" vertex="1">
          <mxGeometry x="-390" y="345" width="120" height="80" as="geometry" />
        </mxCell>
        <mxCell id="g9a9p5KyALhsiFFAaAvJ-63" style="edgeStyle=none;rounded=0;orthogonalLoop=1;jettySize=auto;html=1;exitX=0.5;exitY=1;exitDx=0;exitDy=0;" parent="1" source="g9a9p5KyALhsiFFAaAvJ-62" edge="1">
          <mxGeometry relative="1" as="geometry">
            <mxPoint x="-669.8064516129033" y="490" as="targetPoint" />
          </mxGeometry>
        </mxCell>
        <mxCell id="g9a9p5KyALhsiFFAaAvJ-62" value="int i=2; i&amp;lt;num; i++" style="shape=hexagon;perimeter=hexagonPerimeter2;whiteSpace=wrap;html=1;fixedSize=1;" parent="1" vertex="1">
          <mxGeometry x="-730" y="340" width="120" height="80" as="geometry" />
        </mxCell>
        <mxCell id="g9a9p5KyALhsiFFAaAvJ-65" style="edgeStyle=none;rounded=0;orthogonalLoop=1;jettySize=auto;html=1;exitX=1;exitY=0.5;exitDx=0;exitDy=0;" parent="1" source="g9a9p5KyALhsiFFAaAvJ-64" edge="1">
          <mxGeometry relative="1" as="geometry">
            <mxPoint x="-570" y="530.0322580645161" as="targetPoint" />
          </mxGeometry>
        </mxCell>
        <mxCell id="g9a9p5KyALhsiFFAaAvJ-66" value="true" style="edgeLabel;html=1;align=center;verticalAlign=middle;resizable=0;points=[];" parent="g9a9p5KyALhsiFFAaAvJ-65" vertex="1" connectable="0">
          <mxGeometry x="-0.0903" y="-2" relative="1" as="geometry">
            <mxPoint as="offset" />
          </mxGeometry>
        </mxCell>
        <mxCell id="g9a9p5KyALhsiFFAaAvJ-67" style="edgeStyle=none;rounded=0;orthogonalLoop=1;jettySize=auto;html=1;exitX=0.5;exitY=1;exitDx=0;exitDy=0;" parent="1" source="g9a9p5KyALhsiFFAaAvJ-64" edge="1">
          <mxGeometry relative="1" as="geometry">
            <mxPoint x="-669.8064516129033" y="640" as="targetPoint" />
          </mxGeometry>
        </mxCell>
        <mxCell id="g9a9p5KyALhsiFFAaAvJ-68" value="false" style="edgeLabel;html=1;align=center;verticalAlign=middle;resizable=0;points=[];" parent="g9a9p5KyALhsiFFAaAvJ-67" vertex="1" connectable="0">
          <mxGeometry x="-0.0625" y="2" relative="1" as="geometry">
            <mxPoint as="offset" />
          </mxGeometry>
        </mxCell>
        <mxCell id="g9a9p5KyALhsiFFAaAvJ-79" style="rounded=0;orthogonalLoop=1;jettySize=auto;html=1;" parent="1" source="g9a9p5KyALhsiFFAaAvJ-64" edge="1">
          <mxGeometry relative="1" as="geometry">
            <mxPoint x="-760" y="530" as="targetPoint" />
          </mxGeometry>
        </mxCell>
        <mxCell id="g9a9p5KyALhsiFFAaAvJ-64" value="num%i != 0" style="rhombus;whiteSpace=wrap;html=1;" parent="1" vertex="1">
          <mxGeometry x="-710" y="490" width="80" height="80" as="geometry" />
        </mxCell>
        <mxCell id="g9a9p5KyALhsiFFAaAvJ-69" value="sade ededdir" style="shape=document;whiteSpace=wrap;html=1;boundedLbl=1;" parent="1" vertex="1">
          <mxGeometry x="-570" y="500" width="120" height="80" as="geometry" />
        </mxCell>
        <mxCell id="g9a9p5KyALhsiFFAaAvJ-72" style="edgeStyle=none;rounded=0;orthogonalLoop=1;jettySize=auto;html=1;" parent="1" source="g9a9p5KyALhsiFFAaAvJ-70" edge="1">
          <mxGeometry relative="1" as="geometry">
            <mxPoint x="-660" y="800" as="targetPoint" />
          </mxGeometry>
        </mxCell>
        <mxCell id="g9a9p5KyALhsiFFAaAvJ-70" value="murekkeb ededdir" style="shape=document;whiteSpace=wrap;html=1;boundedLbl=1;" parent="1" vertex="1">
          <mxGeometry x="-720" y="640" width="120" height="80" as="geometry" />
        </mxCell>
        <mxCell id="g9a9p5KyALhsiFFAaAvJ-74" value="" style="endArrow=classic;html=1;rounded=0;" parent="1" edge="1">
          <mxGeometry width="50" height="50" relative="1" as="geometry">
            <mxPoint x="-660" y="800" as="sourcePoint" />
            <mxPoint x="-520" y="800" as="targetPoint" />
          </mxGeometry>
        </mxCell>
        <mxCell id="g9a9p5KyALhsiFFAaAvJ-76" value="" style="endArrow=classic;html=1;rounded=0;" parent="1" edge="1">
          <mxGeometry width="50" height="50" relative="1" as="geometry">
            <mxPoint x="-330" y="800" as="sourcePoint" />
            <mxPoint x="-400" y="800" as="targetPoint" />
          </mxGeometry>
        </mxCell>
        <mxCell id="g9a9p5KyALhsiFFAaAvJ-77" value="finish" style="ellipse;whiteSpace=wrap;html=1;" parent="1" vertex="1">
          <mxGeometry x="-520" y="750" width="120" height="80" as="geometry" />
        </mxCell>
        <mxCell id="g9a9p5KyALhsiFFAaAvJ-78" style="edgeStyle=none;rounded=0;orthogonalLoop=1;jettySize=auto;html=1;entryX=0.411;entryY=-0.021;entryDx=0;entryDy=0;entryPerimeter=0;" parent="1" source="g9a9p5KyALhsiFFAaAvJ-69" target="g9a9p5KyALhsiFFAaAvJ-77" edge="1">
          <mxGeometry relative="1" as="geometry" />
        </mxCell>
        <mxCell id="g9a9p5KyALhsiFFAaAvJ-80" value="" style="endArrow=classic;html=1;rounded=0;" parent="1" edge="1">
          <mxGeometry width="50" height="50" relative="1" as="geometry">
            <mxPoint x="-760" y="530" as="sourcePoint" />
            <mxPoint x="-760" y="390" as="targetPoint" />
          </mxGeometry>
        </mxCell>
        <mxCell id="g9a9p5KyALhsiFFAaAvJ-81" value="" style="endArrow=classic;html=1;rounded=0;" parent="1" edge="1">
          <mxGeometry width="50" height="50" relative="1" as="geometry">
            <mxPoint x="-760" y="390" as="sourcePoint" />
            <mxPoint x="-730" y="375" as="targetPoint" />
          </mxGeometry>
        </mxCell>
        <mxCell id="HWrZVzWdm_IA51EZndLw-2" style="edgeStyle=none;rounded=0;orthogonalLoop=1;jettySize=auto;html=1;" edge="1" parent="1" source="HWrZVzWdm_IA51EZndLw-1">
          <mxGeometry relative="1" as="geometry">
            <mxPoint x="1250" y="210" as="targetPoint" />
          </mxGeometry>
        </mxCell>
        <mxCell id="HWrZVzWdm_IA51EZndLw-1" value="start" style="ellipse;whiteSpace=wrap;html=1;" vertex="1" parent="1">
          <mxGeometry x="1190" y="60" width="120" height="80" as="geometry" />
        </mxCell>
        <mxCell id="HWrZVzWdm_IA51EZndLw-5" style="edgeStyle=none;rounded=0;orthogonalLoop=1;jettySize=auto;html=1;exitX=0.5;exitY=1;exitDx=0;exitDy=0;entryX=0.5;entryY=0;entryDx=0;entryDy=0;" edge="1" parent="1" source="HWrZVzWdm_IA51EZndLw-3" target="HWrZVzWdm_IA51EZndLw-4">
          <mxGeometry relative="1" as="geometry" />
        </mxCell>
        <mxCell id="HWrZVzWdm_IA51EZndLw-3" value="&lt;div&gt;//int num = Convert.ToInt16(Console.ReadLine());&lt;/div&gt;&lt;div&gt;//int FirstDigit = num / 10;&lt;/div&gt;&lt;div&gt;//int SecondDigit = num % 10;&lt;/div&gt;" style="shape=parallelogram;perimeter=parallelogramPerimeter;whiteSpace=wrap;html=1;fixedSize=1;" vertex="1" parent="1">
          <mxGeometry x="1090" y="210" width="320" height="80" as="geometry" />
        </mxCell>
        <mxCell id="HWrZVzWdm_IA51EZndLw-6" style="edgeStyle=none;rounded=0;orthogonalLoop=1;jettySize=auto;html=1;exitX=0;exitY=0.5;exitDx=0;exitDy=0;" edge="1" parent="1" source="HWrZVzWdm_IA51EZndLw-4">
          <mxGeometry relative="1" as="geometry">
            <mxPoint x="1120" y="380.3478260869566" as="targetPoint" />
          </mxGeometry>
        </mxCell>
        <mxCell id="HWrZVzWdm_IA51EZndLw-8" value="false" style="edgeLabel;html=1;align=center;verticalAlign=middle;resizable=0;points=[];" vertex="1" connectable="0" parent="HWrZVzWdm_IA51EZndLw-6">
          <mxGeometry x="-0.1247" y="-1" relative="1" as="geometry">
            <mxPoint as="offset" />
          </mxGeometry>
        </mxCell>
        <mxCell id="HWrZVzWdm_IA51EZndLw-7" style="edgeStyle=none;rounded=0;orthogonalLoop=1;jettySize=auto;html=1;exitX=1;exitY=0.5;exitDx=0;exitDy=0;" edge="1" parent="1" source="HWrZVzWdm_IA51EZndLw-4">
          <mxGeometry relative="1" as="geometry">
            <mxPoint x="1390" y="380.3478260869566" as="targetPoint" />
          </mxGeometry>
        </mxCell>
        <mxCell id="HWrZVzWdm_IA51EZndLw-9" value="true" style="edgeLabel;html=1;align=center;verticalAlign=middle;resizable=0;points=[];" vertex="1" connectable="0" parent="HWrZVzWdm_IA51EZndLw-7">
          <mxGeometry x="-0.2402" y="3" relative="1" as="geometry">
            <mxPoint as="offset" />
          </mxGeometry>
        </mxCell>
        <mxCell id="HWrZVzWdm_IA51EZndLw-4" value="num&gt;99 || num&lt;10" style="rhombus;whiteSpace=wrap;html=1;" vertex="1" parent="1">
          <mxGeometry x="1210" y="340" width="80" height="80" as="geometry" />
        </mxCell>
        <mxCell id="HWrZVzWdm_IA51EZndLw-25" style="edgeStyle=none;rounded=0;orthogonalLoop=1;jettySize=auto;html=1;" edge="1" parent="1" source="HWrZVzWdm_IA51EZndLw-11">
          <mxGeometry relative="1" as="geometry">
            <mxPoint x="1470" y="690" as="targetPoint" />
          </mxGeometry>
        </mxCell>
        <mxCell id="HWrZVzWdm_IA51EZndLw-11" value="Console.WriteLine(&quot;düzgün eded daxil edin&quot;);" style="shape=document;whiteSpace=wrap;html=1;boundedLbl=1;" vertex="1" parent="1">
          <mxGeometry x="1390" y="345" width="160" height="85" as="geometry" />
        </mxCell>
        <mxCell id="HWrZVzWdm_IA51EZndLw-14" style="edgeStyle=none;rounded=0;orthogonalLoop=1;jettySize=auto;html=1;exitX=0;exitY=0.5;exitDx=0;exitDy=0;entryX=1;entryY=0.5;entryDx=0;entryDy=0;" edge="1" parent="1" source="HWrZVzWdm_IA51EZndLw-12" target="HWrZVzWdm_IA51EZndLw-13">
          <mxGeometry relative="1" as="geometry" />
        </mxCell>
        <mxCell id="HWrZVzWdm_IA51EZndLw-16" style="edgeStyle=none;rounded=0;orthogonalLoop=1;jettySize=auto;html=1;exitX=0.5;exitY=1;exitDx=0;exitDy=0;" edge="1" parent="1" source="HWrZVzWdm_IA51EZndLw-12">
          <mxGeometry relative="1" as="geometry">
            <mxPoint x="1060" y="510" as="targetPoint" />
          </mxGeometry>
        </mxCell>
        <mxCell id="HWrZVzWdm_IA51EZndLw-17" value="false" style="edgeLabel;html=1;align=center;verticalAlign=middle;resizable=0;points=[];" vertex="1" connectable="0" parent="HWrZVzWdm_IA51EZndLw-16">
          <mxGeometry x="0.0077" y="1" relative="1" as="geometry">
            <mxPoint as="offset" />
          </mxGeometry>
        </mxCell>
        <mxCell id="HWrZVzWdm_IA51EZndLw-12" value="FirstDigit &amp;gt; SecondDigit" style="rhombus;whiteSpace=wrap;html=1;" vertex="1" parent="1">
          <mxGeometry x="1000" y="335" width="120" height="90" as="geometry" />
        </mxCell>
        <mxCell id="HWrZVzWdm_IA51EZndLw-13" value="FirstDigit" style="shape=document;whiteSpace=wrap;html=1;boundedLbl=1;" vertex="1" parent="1">
          <mxGeometry x="827" y="340" width="120" height="80" as="geometry" />
        </mxCell>
        <mxCell id="HWrZVzWdm_IA51EZndLw-15" value="true" style="text;html=1;align=center;verticalAlign=middle;resizable=0;points=[];autosize=1;strokeColor=none;fillColor=none;" vertex="1" parent="1">
          <mxGeometry x="950" y="358" width="40" height="30" as="geometry" />
        </mxCell>
        <mxCell id="HWrZVzWdm_IA51EZndLw-19" style="edgeStyle=none;rounded=0;orthogonalLoop=1;jettySize=auto;html=1;exitX=0;exitY=0.5;exitDx=0;exitDy=0;" edge="1" parent="1" source="HWrZVzWdm_IA51EZndLw-18">
          <mxGeometry relative="1" as="geometry">
            <mxPoint x="890" y="549.913043478261" as="targetPoint" />
          </mxGeometry>
        </mxCell>
        <mxCell id="HWrZVzWdm_IA51EZndLw-20" value="true" style="edgeLabel;html=1;align=center;verticalAlign=middle;resizable=0;points=[];" vertex="1" connectable="0" parent="HWrZVzWdm_IA51EZndLw-19">
          <mxGeometry x="0.0087" y="2" relative="1" as="geometry">
            <mxPoint as="offset" />
          </mxGeometry>
        </mxCell>
        <mxCell id="HWrZVzWdm_IA51EZndLw-22" style="edgeStyle=none;rounded=0;orthogonalLoop=1;jettySize=auto;html=1;" edge="1" parent="1" source="HWrZVzWdm_IA51EZndLw-18">
          <mxGeometry relative="1" as="geometry">
            <mxPoint x="1060" y="660" as="targetPoint" />
          </mxGeometry>
        </mxCell>
        <mxCell id="HWrZVzWdm_IA51EZndLw-23" value="false" style="edgeLabel;html=1;align=center;verticalAlign=middle;resizable=0;points=[];" vertex="1" connectable="0" parent="HWrZVzWdm_IA51EZndLw-22">
          <mxGeometry x="-0.0275" y="-2" relative="1" as="geometry">
            <mxPoint as="offset" />
          </mxGeometry>
        </mxCell>
        <mxCell id="HWrZVzWdm_IA51EZndLw-18" value="SecondDigit &amp;gt; FirstDigit" style="rhombus;whiteSpace=wrap;html=1;" vertex="1" parent="1">
          <mxGeometry x="1000" y="510" width="120" height="80" as="geometry" />
        </mxCell>
        <mxCell id="HWrZVzWdm_IA51EZndLw-21" value="seconddigit" style="shape=document;whiteSpace=wrap;html=1;boundedLbl=1;" vertex="1" parent="1">
          <mxGeometry x="770" y="510" width="120" height="80" as="geometry" />
        </mxCell>
        <mxCell id="HWrZVzWdm_IA51EZndLw-26" style="edgeStyle=none;rounded=0;orthogonalLoop=1;jettySize=auto;html=1;entryX=0;entryY=0.375;entryDx=0;entryDy=0;entryPerimeter=0;" edge="1" parent="1" source="HWrZVzWdm_IA51EZndLw-24" target="HWrZVzWdm_IA51EZndLw-28">
          <mxGeometry relative="1" as="geometry">
            <mxPoint x="1310" y="707.391304347826" as="targetPoint" />
          </mxGeometry>
        </mxCell>
        <mxCell id="HWrZVzWdm_IA51EZndLw-24" value="beraberdir" style="shape=document;whiteSpace=wrap;html=1;boundedLbl=1;" vertex="1" parent="1">
          <mxGeometry x="1000" y="660" width="110" height="80" as="geometry" />
        </mxCell>
        <mxCell id="HWrZVzWdm_IA51EZndLw-28" value="end" style="ellipse;whiteSpace=wrap;html=1;" vertex="1" parent="1">
          <mxGeometry x="1410" y="690" width="120" height="80" as="geometry" />
        </mxCell>
      </root>
    </mxGraphModel>
  </diagram>
</mxfile>
